Coordinates
version=1
nRows=17
nColumns=40
inDegrees=yes

Units are S.I. units (second, meters, Newtons, ...)
Angles are in degrees.

endheader
time	pelvis_tilt	pelvis_list	pelvis_rotation	pelvis_tx	pelvis_ty	pelvis_tz	hip_flexion_r	hip_adduction_r	hip_rotation_r	knee_angle_r	knee_angle_r_beta	ankle_angle_r	subtalar_angle_r	mtp_angle_r	hip_flexion_l	hip_adduction_l	hip_rotation_l	knee_angle_l	knee_angle_l_beta	ankle_angle_l	subtalar_angle_l	mtp_angle_l	lumbar_extension	lumbar_bending	lumbar_rotation	arm_flex_r	arm_add_r	arm_rot_r	elbow_flex_r	pro_sup_r	wrist_flex_r	wrist_dev_r	arm_flex_l	arm_add_l	arm_rot_l	elbow_flex_l	pro_sup_l	wrist_flex_l	wrist_dev_l
     11.30000000	     -6.10405993	     -7.20755988	      3.72054264	      0.99697887	      0.91558289	      0.48615122	     -1.09436609	      6.71109696	    -17.58863406	      8.58207955	      8.58207955	     17.41180821	      7.17183106	     -1.35200931	     36.45794748	     -8.73649926	      1.50064722	     22.71856060	     22.71856060	      5.11811662	    -11.61648884	      9.66547474	    -10.32438659	      5.92919380	      5.26844730	     51.47721920	    -12.03241012	      4.88838443	     97.65510542	     44.36232179	      0.00000000	      0.00000000	    -21.06534102	     -6.78413941	      0.86046792	     29.89513979	     44.97178085	      0.00000000	      0.00000000
     11.31185714	     -6.15457117	     -7.30734596	      3.30401923	      0.99864253	      0.91413564	      0.48481308	     -1.60434777	      6.63701297	    -17.21546777	      8.90300573	      8.90300573	     17.83274345	      7.31859101	     -1.48936568	     35.79342391	     -8.91666243	      0.96987383	     22.94723927	     22.94723927	      4.43423142	    -11.83315600	      9.73910142	     -9.94518855	      6.01219254	      5.42142396	     52.60815369	    -11.54954671	      4.90527051	     98.42926215	     44.34751411	      0.00000000	      0.00000000	    -21.63306287	     -6.59005086	      1.03161298	     29.68671256	     44.94307175	      0.00000000	      0.00000000
     11.32371429	     -6.19991658	     -7.33666429	      2.93786356	      1.00027971	      0.91285881	      0.48326218	     -1.94140792	      6.38341431	    -17.06916221	      9.60502735	      9.60502735	     18.53533286	      7.71135725	     -1.06392685	     34.99597284	     -8.97188144	      0.61451014	     22.88250193	     22.88250193	      2.64572389	    -12.53832206	      7.03144724	     -9.61103259	      6.02065967	      5.41831434	     53.35879787	    -11.23994717	      5.37434606	     99.79500865	     44.36187335	      0.00000000	      0.00000000	    -22.30798017	     -6.71403185	      2.38529638	     29.93113535	     44.80103615	      0.00000000	      0.00000000
     11.33557143	     -6.22551277	     -7.31196005	      2.64177085	      1.00168888	      0.91198634	      0.48145702	     -2.29713131	      6.09153605	    -16.78476633	     10.21867555	     10.21867555	     18.87239874	      7.67606838	     -1.23796560	     34.44029850	     -8.95089011	      0.36210676	     23.30348678	     23.30348678	      2.21246938	    -12.71987347	      6.99635948	     -9.34143463	      5.99454981	      5.33962831	     54.10519000	    -10.81931872	      5.40614139	    100.51404826	     44.34736834	      0.00000000	      0.00000000	    -22.59823586	     -6.49141342	      2.54264250	     29.76118167	     44.78103057	      0.00000000	      0.00000000
     11.34742857	     -6.36107762	     -7.16934880	      2.36596609	      1.00281804	      0.91131576	      0.47939792	     -2.28815378	      5.55212322	    -16.66152149	     11.29595735	     11.29595735	     19.30900637	      7.74741559	     -1.33712930	     33.96543175	     -8.74832665	      0.28640836	     23.58018306	     23.58018306	      1.40138130	    -13.33629637	      5.82539321	     -9.03577759	      5.83372674	      5.36277436	     54.30892057	    -10.78685881	      5.46555053	    102.05593628	     44.34510967	      0.00000000	      0.00000000	    -22.56419965	     -6.46111761	      3.29065746	     29.38967106	     44.72824217	      0.00000000	      0.00000000
     11.35928571	     -6.31623557	     -7.03921289	      2.19997240	      1.00386354	      0.91130449	      0.47712665	     -2.54894438	      5.07866330	    -16.46980233	     12.14987098	     12.14987098	     19.45558729	      7.60421053	     -1.52359827	     33.50014108	     -8.56119740	      0.22858199	     24.18251254	     24.18251254	      1.41034482	    -13.57387886	      5.65661127	     -8.96164020	      5.70503559	      5.10235310	     54.60803684	    -10.54414062	      5.47614645	    102.63716415	     44.33366966	      0.00000000	      0.00000000	    -22.47293640	     -6.38882828	      3.41245355	     29.29479421	     44.71935756	      0.00000000	      0.00000000
     11.37114286	     -6.42635799	     -6.80425991	      2.08477620	      1.00453712	      0.91145488	      0.47451217	     -2.35923741	      4.36881460	    -16.38780658	     13.51106344	     13.51106344	     19.61587300	      7.42127183	     -1.92386767	     33.21659652	     -8.19624990	      0.25849037	     24.73640940	     24.73640940	      1.53555923	    -13.93923271	      5.51081810	     -8.78707225	      5.48247522	      4.82737316	     54.50052316	    -10.46353274	      5.44248643	    103.68473211	     44.31379011	      0.00000000	      0.00000000	    -22.12234247	     -6.31637668	      3.63774770	     29.07928013	     44.70740134	      0.00000000	      0.00000000
     11.38300000	     -6.48956336	     -6.55279534	      2.02437045	      1.00506507	      0.91205672	      0.47164717	     -2.16313918	      3.60944260	    -16.39246177	     14.93364280	     14.93364280	     19.56536257	      7.29601563	     -2.44312739	     32.89152282	     -7.77130814	      0.37764493	     25.27462045	     25.27462045	      1.91823078	    -14.31953576	      5.54045179	     -8.71634409	      5.26198231	      4.68037873	     54.14364138	    -10.69826504	      5.25396008	    104.75133298	     44.29900684	      0.00000000	      0.00000000	    -21.44714735	     -6.29703519	      3.87667574	     28.86301161	     44.70056708	      0.00000000	      0.00000000
     11.39485714	     -6.51029774	     -6.30855368	      1.99778592	      1.00551744	      0.91307773	      0.46858350	     -2.01544638	      2.83731517	    -16.48455549	     16.28633385	     16.28633385	     19.06747650	      7.23857583	     -3.79610865	     32.53177774	     -7.32462432	      0.54021557	     25.82762404	     25.82762404	      2.83174193	    -14.60709313	      6.52266905	     -8.73359277	      5.04697135	      5.08319307	     53.18165012	    -11.65325338	      4.52379628	    106.66708149	     44.30666477	      0.00000000	      0.00000000	    -20.13706772	     -6.45418343	      4.63384999	     28.08851498	     44.66907649	      0.00000000	      0.00000000
     11.40671429	     -6.52918592	     -6.10326779	      1.97475245	      1.00579473	      0.91424664	      0.46538762	     -1.64350277	      2.04703001	    -16.43446136	     18.04863175	     18.04863175	     18.70149843	      6.95570521	     -4.49915898	     32.11331634	     -6.93541769	      0.56717808	     26.22944190	     26.22944190	      3.50971482	    -14.81519321	      6.59570893	     -8.74488246	      4.92486601	      4.75838695	     52.54146452	    -11.89930566	      4.38224115	    107.01868422	     44.30971661	      0.00000000	      0.00000000	    -19.38129919	     -6.47421310	      4.79113332	     28.19881395	     44.67260364	      0.00000000	      0.00000000
     11.41857143	     -6.53062333	     -5.88848928	      1.96144573	      1.00600058	      0.91562101	      0.46205832	     -1.25648062	      1.21673513	    -16.44435926	     19.77661184	     19.77661184	     17.50167702	      6.55080364	     -7.22436021	     31.66282379	     -6.50636660	      0.63909931	     26.63397566	     26.63397566	      4.74662578	    -14.92821454	      8.03861645	     -8.81591441	      4.79831314	      5.10041908	     51.21225446	    -12.89544287	      3.51473008	    108.47055345	     44.33973328	      0.00000000	      0.00000000	    -18.05024628	     -6.66269820	      5.38740876	     28.02400076	     44.67301723	      0.00000000	      0.00000000
     11.43042857	     -6.53768427	     -5.73494846	      1.91180281	      1.00608683	      0.91699068	      0.45874820	     -0.63494034	      0.40827209	    -16.30229434	     21.88529125	     21.88529125	     16.24259510	      5.85864721	     -9.66711440	     31.12556428	     -6.16475105	      0.61210147	     26.83638843	     26.83638843	      5.64488826	    -15.03551695	      8.58433987	     -8.85876729	      4.75510438	      5.10490758	     50.01748040	    -13.55310236	      2.97003675	    108.90537066	     44.38445394	      0.00000000	      0.00000000	    -17.02441774	     -6.80500966	      5.70958467	     28.37760539	     44.70380969	      0.00000000	      0.00000000
     11.44228571	     -6.56184761	     -5.63822874	      1.82824641	      1.00608280	      0.91828345	      0.45553391	      0.26876250	     -0.40685473	    -16.10002282	     24.50105061	     24.50105061	     15.34027197	      5.18683737	    -10.60623359	     30.53628043	     -5.92884220	      0.44470146	     26.88972135	     26.88972135	      6.29664878	    -15.02182662	      8.44035497	     -8.87098385	      4.79260340	      4.85999469	     48.88279057	    -14.01706605	      2.76680386	    108.63748098	     44.40395163	      0.00000000	      0.00000000	    -16.10116006	     -6.87625172	      5.68520598	     28.81309376	     44.73534731	      0.00000000	      0.00000000
     11.45414286	     -6.55046364	     -5.58231631	      1.70606202	      1.00596958	      0.91952712	      0.45252584	      1.24692315	     -1.09454208	    -15.57363629	     27.11435320	     27.11435320	     13.35338161	      3.57395665	    -13.88352348	     29.90435636	     -5.74582545	      0.30729557	     26.93408883	     26.93408883	      7.04220856	    -15.03188905	      8.68821023	     -8.95075655	      4.81970862	      5.19611639	     47.16096239	    -14.92928926	      1.62235838	    109.05608250	     44.45371816	      0.00000000	      0.00000000	    -14.97773034	     -7.08628218	      5.46686169	     29.70740501	     44.83332420	      0.00000000	      0.00000000
     11.46600000	     -6.49501134	     -5.45113614	      1.53839843	      1.00578646	      0.92063558	      0.44956118	      2.50808234	     -2.01335649	    -15.22852037	     30.41953942	     30.41953942	     12.08915055	      2.58688412	    -14.62835695	     29.16913856	     -5.54575443	     -0.06499645	     26.89602105	     26.89602105	      7.64362889	    -14.89578836	      8.43056918	     -9.07075634	      4.80501952	      4.91023695	     45.85512675	    -15.27910114	      1.53921373	    108.42155840	     44.47559806	      0.00000000	      0.00000000	    -13.99421030	     -7.23150582	      5.36880655	     30.18663205	     44.87021711	      0.00000000	      0.00000000
     11.47785714	     -6.46766717	     -5.37637228	      1.35754205	      1.00541737	      0.92150723	      0.44678327	      4.00817475	     -2.81321629	    -14.67915970	     33.95545345	     33.95545345	     10.53314596	      1.11344712	    -15.28864898	     28.48094912	     -5.39672510	     -0.36714799	     26.85323006	     26.85323006	      8.20595879	    -14.76455314	      8.15112727	     -9.16412006	      4.85437082	      4.75493568	     44.40096206	    -15.74924945	      1.25407499	    107.63304002	     44.50765064	      0.00000000	      0.00000000	    -12.94885386	     -7.42109221	      5.18107815	     30.86385549	     44.91940936	      0.00000000	      0.00000000
     11.48971429	     -6.54507897	     -5.43664838	      1.14647684	      1.00475779	      0.92204096	      0.44454482	      5.79223936	     -3.20119491	    -13.62715187	     37.43832545	     37.43832545	      7.78813525	     -2.14815045	    -18.15797311	     27.94640324	     -5.46035701	     -0.74413188	     26.80905092	     26.80905092	      8.62247148	    -14.51508158	      7.52085051	     -9.13749040	      4.94640588	      5.02495310	     42.44250806	    -16.28197208	     -0.40530797	    106.97683764	     44.60757640	      0.00000000	      0.00000000	    -12.13608139	     -7.69746722	      4.06626711	     32.79829900	     45.14241185	      0.00000000	      0.00000000
